<svg width="7" height="8" viewBox="0 0 7 8" fill="none" xmlns="http://www.w3.org/2000/svg">
<path d="M4 1H1V7H4" stroke="black" stroke-width="0.5" stroke-linecap="round" stroke-linejoin="round"/>
<path d="M6.17678 4.17678C6.27441 4.07915 6.27441 3.92085 6.17678 3.82322L4.58579 2.23223C4.48816 2.1346 4.32986 2.1346 4.23223 2.23223C4.1346 2.32986 4.1346 2.48816 4.23223 2.58579L5.64645 4L4.23223 5.41421C4.1346 5.51184 4.1346 5.67014 4.23223 5.76777C4.32986 5.8654 4.48816 5.8654 4.58579 5.76777L6.17678 4.17678ZM3 4L3 4.25L6 4.25L6 4L6 3.75L3 3.75L3 4Z" fill="black"/>
</svg>
