<svg width="37" height="37" viewBox="0 0 37 37" fill="none" xmlns="http://www.w3.org/2000/svg">
<path d="M24.5211 13.69V30.9882C24.5211 33.1962 22.9272 34.125 20.9807 33.0591L14.9576 29.7243C14.3139 29.3741 13.2717 29.3741 12.628 29.7243L6.60479 33.0591C4.65837 34.125 3.06445 33.1962 3.06445 30.9882V13.69C3.06445 11.0861 5.21009 8.95435 7.83087 8.95435H19.7547C22.3754 8.95435 24.5211 11.0861 24.5211 13.69Z" stroke="white" stroke-width="1.5" stroke-linecap="round" stroke-linejoin="round"/>
<path d="M33.7184 7.7818V25.08C33.7184 27.288 32.1244 28.2168 30.178 27.1509L24.5227 24.0141V13.69C24.5227 11.0861 22.377 8.95433 19.7562 8.95433H12.2617V7.7818C12.2617 5.17794 14.4074 3.04614 17.0281 3.04614H28.9519C31.5727 3.04614 33.7184 5.17794 33.7184 7.7818Z" stroke="white" stroke-width="1.5" stroke-linecap="round" stroke-linejoin="round"/>
<path d="M10.7285 18.2734H16.859" stroke="white" stroke-width="1.5" stroke-linecap="round" stroke-linejoin="round"/>
<path d="M13.793 21.3189V15.228" stroke="white" stroke-width="1.5" stroke-linecap="round" stroke-linejoin="round"/>
</svg>
